<svg t="1678640532573" class="icon" viewBox="0 0 1024 1024" version="1.1" xmlns="http://www.w3.org/2000/svg" p-id="2785" width="200" height="200"><path d="M875.52 859.136c8.192 8.192 8.192 20.48 0 28.672-4.096 4.096-9.216 6.144-14.336 6.144s-10.24-2.048-14.336-6.144L586.752 628.736c0 44.032 3.072 112.64 9.216 133.12 3.072 11.264-3.072 22.528-14.336 25.6-2.048 0-4.096 1.024-5.12 1.024-9.216 0-17.408-6.144-19.456-15.36-4.096-16.384-21.504-181.248 1.024-203.776 22.528-22.528 186.368-6.144 203.776-1.024 11.264 3.072 17.408 14.336 14.336 25.6-3.072 11.264-14.336 17.408-25.6 14.336-19.456-5.12-92.16-9.216-137.216-8.192l262.144 259.072zM262.144 428.032c-11.264-3.072-22.528 3.072-25.6 14.336-3.072 11.264 3.072 22.528 14.336 25.6s76.8 10.24 132.096 10.24c33.792 0 63.488-3.072 72.704-11.264 23.552-23.552 6.144-187.392 1.024-203.776-3.072-11.264-14.336-17.408-25.6-14.336-11.264 3.072-17.408 14.336-14.336 25.6 6.144 20.48 10.24 93.184 9.216 137.216L150.528 134.144c-8.192-8.192-20.48-8.192-28.672 0s-8.192 20.48 0 28.672l273.408 273.408c-44.032 1.024-113.664-3.072-133.12-8.192zM901.12 135.168c-8.192-8.192-20.48-8.192-28.672 0L596.992 409.6c-1.024-43.008 3.072-115.712 9.216-137.216 3.072-11.264-3.072-22.528-14.336-25.6-11.264-3.072-22.528 3.072-25.6 14.336-4.096 16.384-21.504 181.248 1.024 203.776 8.192 8.192 37.888 11.264 72.704 11.264 54.272 0 120.832-7.168 132.096-10.24s17.408-14.336 14.336-25.6c-3.072-11.264-14.336-17.408-25.6-14.336-19.456 5.12-88.064 9.216-133.12 8.192L901.12 163.84c8.192-8.192 8.192-20.48 0-28.672zM262.144 567.296c-11.264 3.072-17.408 14.336-14.336 25.6 3.072 11.264 14.336 17.408 25.6 14.336 19.456-5.12 92.16-9.216 137.216-8.192L148.48 859.136c-8.192 8.192-8.192 20.48 0 28.672 4.096 4.096 9.216 6.144 14.336 6.144s10.24-2.048 14.336-6.144l259.072-259.072c0 44.032-3.072 112.64-9.216 133.12-3.072 11.264 3.072 22.528 14.336 25.6 2.048 0 4.096 1.024 5.12 1.024 9.216 0 17.408-6.144 19.456-15.36 4.096-16.384 21.504-181.248-1.024-203.776-20.48-23.552-185.344-7.168-202.752-2.048z" p-id="2786"></path></svg>