<svg t="1678640511015" class="icon" viewBox="0 0 1024 1024" version="1.1" xmlns="http://www.w3.org/2000/svg" p-id="2631" width="200" height="200"><path d="M907.264 712.704c5.12 17.408 20.48 182.272-1.024 203.776-8.192 8.192-37.888 11.264-72.704 11.264-54.272 0-120.832-7.168-132.096-10.24s-17.408-14.336-14.336-25.6c3.072-11.264 14.336-17.408 25.6-14.336 19.456 5.12 88.064 9.216 133.12 8.192L571.392 612.352c-8.192-8.192-8.192-20.48 0-28.672s20.48-8.192 28.672 0l275.456 275.456 1.024 1.024c1.024-44.032-3.072-116.736-8.192-137.216-3.072-11.264 3.072-22.528 14.336-25.6 10.24-2.048 21.504 4.096 24.576 15.36zM125.952 336.896c2.048 0 4.096 0 5.12-1.024 11.264-3.072 17.408-14.336 14.336-25.6-5.12-19.456-9.216-88.064-8.192-133.12l280.576 280.576c4.096 4.096 9.216 6.144 14.336 6.144s10.24-2.048 14.336-6.144c8.192-8.192 8.192-20.48 0-28.672L163.84 147.456c44.032-1.024 116.736 3.072 137.216 8.192 11.264 3.072 22.528-3.072 25.6-14.336 3.072-11.264-3.072-22.528-14.336-25.6-17.408-5.12-182.272-20.48-203.776 1.024-22.528 22.528-6.144 186.368-1.024 203.776 1.024 10.24 9.216 16.384 18.432 16.384z m296.96 247.808L148.48 859.136c-1.024 1.024-1.024 1.024-1.024 2.048-1.024-43.008 3.072-116.736 9.216-137.216 3.072-11.264-3.072-22.528-14.336-25.6s-22.528 3.072-25.6 14.336c-4.096 16.384-21.504 181.248 1.024 203.776 8.192 8.192 37.888 11.264 72.704 11.264 54.272 0 120.832-7.168 132.096-10.24s17.408-14.336 14.336-25.6-14.336-17.408-25.6-14.336c-19.456 5.12-88.064 9.216-133.12 8.192l273.408-273.408c8.192-8.192 8.192-20.48 0-28.672s-20.48-7.168-28.672 1.024z m493.568-466.944c-22.528-22.528-186.368-6.144-203.776-1.024-11.264 3.072-17.408 14.336-14.336 25.6 3.072 11.264 14.336 17.408 25.6 14.336 19.456-5.12 92.16-9.216 137.216-8.192L577.536 430.08c-8.192 8.192-8.192 20.48 0 28.672 4.096 4.096 9.216 6.144 14.336 6.144s10.24-2.048 14.336-6.144l280.576-280.576c0 44.032-3.072 113.664-8.192 133.12-3.072 11.264 3.072 22.528 14.336 25.6 2.048 0 4.096 1.024 5.12 1.024 9.216 0 17.408-6.144 19.456-15.36 5.12-18.432 21.504-183.296-1.024-204.8z" p-id="2632"></path></svg>