<svg t="1678641820784" class="icon" viewBox="0 0 1024 1024" version="1.1" xmlns="http://www.w3.org/2000/svg" p-id="5152" width="200" height="200"><path d="M875.52 736a32 32 0 0 1-32-32V243.2a46.4 46.4 0 0 0-46.4-46.08H336.64a32 32 0 0 1 0-64h460.48a110.4 110.4 0 0 1 110.4 110.08V704a32 32 0 0 1-32 32z" p-id="5153"></path><path d="M709.12 901.12H249.6a110.08 110.08 0 0 1-110.08-110.08V331.2A110.4 110.4 0 0 1 249.6 221.12h459.52a110.4 110.4 0 0 1 110.4 110.08v459.84a110.4 110.4 0 0 1-110.4 110.08zM249.6 285.12a46.4 46.4 0 0 0-46.08 46.08v459.84a46.4 46.4 0 0 0 46.08 46.08h459.52a46.4 46.4 0 0 0 46.4-46.08V331.2a46.4 46.4 0 0 0-46.4-46.08z" p-id="5154"></path><path d="M530.24 576h-103.04l-27.2 86.08h-35.84l96-281.28h39.04l96 281.28h-38.08z m-8.96-28.16l-13.44-43.2c-10.24-32-19.2-64-28.16-96h-1.6c-8.96 32-18.24 64-28.16 96l-13.76 43.2zM626.24 768H332.8a32 32 0 0 1 0-64h293.44a32 32 0 0 1 0 64z" p-id="5155"></path></svg>